# xmcd
#
# Track frame offsets:
#	150
#	21797
#	39054
#	69648
#	87867
#	112631
#	132729
#	152544
#	178365
#	198306
#	218740
#	239618
#
# Disc length: 3526 seconds
#
# Revision: 1
# Processed by: cddbd v1.5.2PL0 Copyright (c) Steve Scherf et al.
# Submitted via: EasyCDDAExtractor 16.0.9.1
#
DISCID=9e0dc40c
DTITLE=Nguyễn Hồng Ân - NHACD: Ai Cho Tôi Tình Yêu
DYEAR=2017
DGENRE=Country
TTITLE0=Xin Gọi Nhau Là Cố Nhân (Song Ngọc)
TTITLE1=Hoa Sứ Nhà Nàng (Hoàng Phương)
TTITLE2=Hoa Nở Về Đêm (Mạnh Phát)
TTITLE3=Người Ngoài Phố (Anh Việt Thu)
TTITLE4=Xin Thời Gian Qua Mau (Lam Phương)
TTITLE5=Ai Cho Tôi Tình Yêu (Trúc Phương)
TTITLE6=Yêu Một Mình (Trịnh Lâm Ngân)
TTITLE7=Nhà Anh Nhà Em (Anh Sơn)
TTITLE8=Chuyện Hẹn Hò (Trần Thiện Thanh)
TTITLE9=Chia Ly (Đỗ Lễ)
TTITLE10=Lá Thư Cuối Cùng (Mộng Long)
TTITLE11=Sầu Lẻ Bóng (Anh Bằng)
EXTD=
EXTT0=
EXTT1=
EXTT2=
EXTT3=
EXTT4=
EXTT5=
EXTT6=
EXTT7=
EXTT8=
EXTT9=
EXTT10=
EXTT11=
PLAYORDER=
